<?xml version="1.0" encoding="utf-8"?>
<!-- Generator: Adobe Illustrator 24.2.1, SVG Export Plug-In . SVG Version: 6.00 Build 0)  -->
<svg version="1.1" id="Ebene_1" xmlns="http://www.w3.org/2000/svg" xmlns:xlink="http://www.w3.org/1999/xlink" x="0px" y="0px"
	 viewBox="0 0 763 165" style="enable-background:new 0 0 763 165;" xml:space="preserve">
<style type="text/css">
	.st0{fill:#1D1D1B;}
</style>
<rect x="104.5" y="47.5" class="st0" width="27" height="117.9"/>
<polygon class="st0" points="138.2,47.5 138.2,165.4 165.2,165.4 165.2,73 204.3,73 204.3,165.4 231.3,165.4 231.3,73 270.4,73 
	270.4,165.4 297.4,165.4 297.4,47.5 "/>
<rect x="304.5" y="47.5" class="st0" width="27" height="117.9"/>
<polygon class="st0" points="360.9,8.6 360.9,47.5 338.4,47.5 338.4,73 360.9,73 360.9,141.4 383.8,165.4 413.7,165.4 413.7,137.1 
	393.2,137.1 387.8,131.4 387.8,73 413.7,73 413.7,47.5 387.8,47.5 387.8,8.6 "/>
<polygon class="st0" points="0,0.4 0,165.4 97.8,165.4 97.8,137.1 27,137.1 27,0.4 "/>
<rect x="104.5" y="0.4" class="st0" width="27" height="24.5"/>
<rect x="304.5" y="0.4" class="st0" width="27" height="24.5"/>
<g>
	<polygon class="st0" points="476.1,47.6 465.6,71.9 455.1,47.7 449.6,47.7 463,77.8 463,78.1 457.4,91.2 462.9,91.2 481.6,47.6 	
		"/>
	<path class="st0" d="M506.9,47.7L494,47.6l-3,3.1v-3.1h-4.5v43.6h5v-15l2.6,2.6h12.8l6.2-6.2V53.9L506.9,47.7z M508.1,70.8l-3,3
		h-11l-2.7-2.6V55.3l2.7-2.7h11l3,3V70.8z"/>
	<path class="st0" d="M546.3,65.5V47.6h-27.1v31.1h27.1v-5h-22.1v-8.2C524.2,65.6,546.3,65.6,546.3,65.5z M524.2,52.6h17.1v8h-17.1
		V52.6z"/>
	<path class="st0" d="M572.3,47.6v4.5h22.1v8h-22.1v18.7h27.1V47.6H572.3z M594.4,74.3h-17.1v-9.7h17.1V74.3z"/>
	<polygon class="st0" points="612.9,47.6 606.7,53.8 606.7,72.5 612.9,78.8 627.5,78.8 633.7,72.5 633.7,68.9 628.7,68.9 
		628.7,70.8 625.7,73.8 614.6,73.8 611.6,70.8 611.6,55.6 614.6,52.6 625.7,52.6 628.7,55.6 628.7,57.5 633.7,57.5 633.7,53.9 
		627.5,47.7 612.9,47.7 	"/>
	<path class="st0" d="M667,65.5V47.6h-27.1v31.1H667v-5h-22.1v-8.2C644.9,65.6,667,65.6,667,65.5z M644.9,52.6H662v8h-17.1V52.6z"/>
	<polygon class="st0" points="433.6,37.4 433.6,47.7 427.4,47.7 427.4,51.9 433.6,51.9 433.6,72.6 439.7,78.8 448.2,78.8 
		448.2,73.8 441.4,73.8 438.5,70.8 438.5,51.9 448.1,51.9 448.1,47.6 438.5,47.6 438.5,37.4 	"/>
	<path class="st0" d="M562.8,33.3l-6.2,6.2v8.1h-6.2v4.3h6.2v26.8h5V51.9h6.8v-4.3h-6.8v-6.3l3-3h3.8v-5
		C568.3,33.3,562.8,33.3,562.8,33.3z"/>
</g>
</svg>
