<?xml version="1.0" encoding="utf-8"?>
<!-- Generator: Adobe Illustrator 24.2.1, SVG Export Plug-In . SVG Version: 6.00 Build 0)  -->
<svg version="1.1" baseProfile="tiny" id="Ebene_1" xmlns="http://www.w3.org/2000/svg" xmlns:xlink="http://www.w3.org/1999/xlink"
	 x="0px" y="0px" viewBox="0 0 10 12" overflow="visible" xml:space="preserve">
<path d="M8,1c0.5514,0,1,0.4486,1,1v8c0,0.5514-0.4486,1-1,1H2c-0.5514,0-1-0.4486-1-1V2c0-0.5514,0.4486-1,1-1H8 M8,0H2
	C0.9,0,0,0.9,0,2v8c0,1.1,0.9,2,2,2h6c1.1,0,2-0.9,2-2V2C10,0.9,9.1,0,8,0L8,0z"/>
<g>
	
		<polyline fill="#FFFFFF" stroke="#000000" stroke-width="1.25" stroke-linecap="round" stroke-linejoin="round" stroke-miterlimit="10" points="
		2.24589,5.27231 5,7.55801 5,2.98661 	"/>
	
		<polyline fill="#FFFFFF" stroke="#000000" stroke-width="1.25" stroke-linecap="round" stroke-linejoin="round" stroke-miterlimit="10" points="
		7.75411,5.27231 7.75411,5.27231 5,7.55801 	"/>
</g>
<line fill="#FFFFFF" stroke="#000000" stroke-width="1.25" stroke-linecap="round" stroke-linejoin="round" stroke-miterlimit="10" x1="2.5" y1="9.50006" x2="7.5" y2="9.50006"/>
</svg>
